<svg xmlns="http://www.w3.org/2000/svg" viewBox="0 0 222 23"><path fill="#fff" d="M5.44 22V10.42h.1L13.97 22h3.96V2.27h-4.76v11.47h-.1L4.68 2.27h-4V22h4.75zm22.3.36c4.69 0 7.61-2.83 7.61-7.81 0-4.88-2.96-7.8-7.61-7.8-4.62 0-7.62 2.93-7.62 7.8 0 4.96 2.93 7.8 7.62 7.8zm0-3.56c-1.67 0-2.7-1.52-2.7-4.24 0-2.68 1.06-4.25 2.7-4.25 1.65 0 2.7 1.57 2.7 4.25 0 2.72-1.05 4.24-2.7 4.24zm14.97 3.42c2.21 0 3.94-1.2 4.54-2.78h.1V22h4.8V2.27h-4.83v7.47h-.1a4.61 4.61 0 00-4.46-2.85c-3.72 0-5.99 2.87-5.99 7.63 0 4.81 2.23 7.7 5.94 7.7zm1.82-11.54c1.73 0 2.8 1.49 2.8 3.88 0 2.42-1.05 3.87-2.8 3.87s-2.8-1.46-2.8-3.87c0-2.39 1.06-3.88 2.8-3.88zm17.03-.48c1.53 0 2.61 1.07 2.7 2.65h-5.42c.12-1.54 1.23-2.65 2.72-2.65zm2.8 7.1c-.34 1-1.35 1.62-2.65 1.62-1.75 0-2.94-1.23-2.94-3v-.3h10.05v-1.37c0-4.55-2.86-7.5-7.34-7.5-4.55 0-7.41 3.07-7.41 7.88s2.83 7.73 7.57 7.73c3.9 0 6.63-1.99 7.1-5.06zm21.13 5.04c5.08 0 8.72-3.09 8.95-7.78h-4.82c-.32 2.31-1.92 3.76-4.12 3.76-2.76 0-4.48-2.34-4.48-6.2 0-3.83 1.73-6.17 4.47-6.17 2.2 0 3.85 1.53 4.1 3.85h4.83c-.16-4.66-3.94-7.87-8.93-7.87-5.88 0-9.59 3.76-9.59 10.2 0 6.45 3.68 10.21 9.59 10.21zm32.96-.34V2.27h-5.8l-4.97 12.9h-.11l-4.98-12.9h-5.8V22h4.42V9.68h.1L106.2 22h2.87l4.88-12.32h.1V22h4.41zm2.34-5.81c.07 3.88 3.32 6.15 8.24 6.15 5.21 0 8.31-2.51 8.31-6.48 0-3.1-1.9-4.81-6.12-5.62l-2.02-.38c-2.15-.41-3.05-.98-3.05-2.02 0-1.17 1.08-1.99 2.9-1.99 1.81 0 3.15.85 3.24 2.27h4.66c-.06-3.76-2.98-6.19-7.95-6.19-4.53 0-7.83 2.45-7.83 6.25 0 3 2.04 4.93 5.98 5.67l2.02.38c2.34.46 3.18 1.02 3.18 2.11 0 1.2-1.27 2.08-3.22 2.08-1.93 0-3.45-.82-3.68-2.23zm42.45-2.53v-2.42h-8.45v3.45h3.6v.3c-.14 1.98-1.73 3.32-4 3.32-2.88 0-4.74-2.37-4.74-6.28 0-3.84 1.68-6.07 4.52-6.07 1.93 0 3.4 1.07 3.9 2.82h4.96c-.5-4.02-4.08-6.85-8.87-6.85-5.96 0-9.62 3.77-9.62 10.17 0 6.48 3.66 10.24 9.74 10.24 5.62 0 8.96-3.3 8.96-8.68zm16.68-6.55h-4.84v8.42c0 1.68-.96 2.8-2.46 2.8-1.52 0-2.44-.94-2.44-2.7V7.1h-4.85v9.57c0 3.52 2.26 5.6 5.46 5.6a4.25 4.25 0 004.33-3.1h.1V22h4.7zM182.3 22h4.84V7.11h-4.84zm2.39-16.58c1.34 0 2.4-1.07 2.4-2.34a2.37 2.37 0 00-2.4-2.35 2.37 2.37 0 00-2.38 2.35 2.36 2.36 0 002.38 2.34zm10.3 16.8c2.21 0 3.93-1.2 4.53-2.78h.1V22h4.81V2.27h-4.84v7.47h-.1a4.61 4.61 0 00-4.45-2.85c-3.72 0-5.99 2.87-5.99 7.63 0 4.81 2.23 7.7 5.94 7.7zm1.81-11.54c1.74 0 2.8 1.49 2.8 3.88 0 2.42-1.05 3.87-2.8 3.87s-2.79-1.46-2.79-3.87c0-2.39 1.06-3.88 2.8-3.88zm16.96-3.92c4.48 0 7.34 2.94 7.34 7.49v1.37h-10.05v.3c0 1.77 1.19 3 2.94 3 1.3 0 2.31-.61 2.65-1.62h4.38c-.47 3.07-3.2 5.06-7.1 5.06-4.74 0-7.57-2.92-7.57-7.73s2.85-7.87 7.4-7.87zm.08 3.44c-1.5 0-2.6 1.1-2.72 2.65h5.41c-.08-1.58-1.16-2.65-2.7-2.65z"/></svg>